<svg xmlns="http://www.w3.org/2000/svg" xmlns:xlink="http://www.w3.org/1999/xlink" width="500" zoomAndPan="magnify" viewBox="0 0 375 149.999998" height="200" preserveAspectRatio="xMidYMid meet" version="1.2"><defs><clipPath id="96d0491ebe"><path d="M 20.414062 27.175781 L 57 27.175781 L 57 112 L 20.414062 112 Z M 20.414062 27.175781 "/></clipPath><clipPath id="9f8c23b799"><path d="M 56 48 L 93.164062 48 L 93.164062 132 L 56 132 Z M 56 48 "/></clipPath></defs><g id="b96cede5d3"><g clip-rule="nonzero" clip-path="url(#96d0491ebe)"><path style=" stroke:none;fill-rule:evenodd;fill:#ffd700;fill-opacity:1;" d="M 56.71875 27.199219 L 56.71875 48.160156 L 38.566406 58.640625 L 38.566406 79.601562 L 56.71875 90.078125 L 56.71875 111.039062 L 20.414062 90.078125 L 20.414062 48.160156 Z M 56.71875 27.199219 "/></g><g clip-rule="nonzero" clip-path="url(#9f8c23b799)"><path style=" stroke:none;fill-rule:evenodd;fill:#4d4d4d;fill-opacity:1;" d="M 56.71875 69.121094 L 74.871094 79.601562 L 74.871094 100.558594 L 56.71875 111.039062 L 56.71875 132 L 93.023438 111.039062 L 93.023438 69.121094 L 56.71875 48.160156 Z M 56.71875 69.121094 "/></g><path style=" stroke:none;fill-rule:evenodd;fill:#8c8c8c;fill-opacity:1;" d="M 68.0625 33.75 L 68.0625 49.46875 L 81.679688 57.328125 L 81.679688 41.609375 Z M 68.0625 33.75 "/><g style="fill:#000000;fill-opacity:1;"><g transform="translate(107.171965, 107.876728)"><path style="stroke:none" d="M 34.78125 -55.5 C 39.363281 -55.5 43.429688 -54.773438 46.984375 -53.328125 C 50.546875 -51.890625 53.578125 -49.847656 56.078125 -47.203125 C 58.585938 -44.554688 60.507812 -41.453125 61.84375 -37.890625 C 63.1875 -34.335938 63.859375 -30.410156 63.859375 -26.109375 C 63.859375 -20.753906 62.742188 -16.015625 60.515625 -11.890625 C 58.296875 -7.765625 55.25 -4.539062 51.375 -2.21875 C 47.5 0.101562 42.988281 1.265625 37.84375 1.265625 C 35.65625 1.265625 33.59375 0.984375 31.65625 0.421875 C 29.71875 -0.140625 27.957031 -0.945312 26.375 -2 C 24.789062 -3.0625 23.46875 -4.367188 22.40625 -5.921875 L 22.09375 -5.921875 L 22.09375 22.9375 L 5.703125 22.9375 L 5.703125 -26.109375 C 5.703125 -32.097656 6.898438 -37.273438 9.296875 -41.640625 C 11.691406 -46.015625 15.070312 -49.414062 19.4375 -51.84375 C 23.8125 -54.28125 28.925781 -55.5 34.78125 -55.5 Z M 34.78125 -41.34375 C 32.238281 -41.34375 30.035156 -40.722656 28.171875 -39.484375 C 26.304688 -38.253906 24.878906 -36.5625 23.890625 -34.40625 C 22.898438 -32.257812 22.40625 -29.847656 22.40625 -27.171875 C 22.40625 -24.492188 22.898438 -22.097656 23.890625 -19.984375 C 24.878906 -17.867188 26.304688 -16.191406 28.171875 -14.953125 C 30.035156 -13.722656 32.238281 -13.109375 34.78125 -13.109375 C 37.320312 -13.109375 39.503906 -13.722656 41.328125 -14.953125 C 43.160156 -16.191406 44.585938 -17.867188 45.609375 -19.984375 C 46.640625 -22.097656 47.15625 -24.492188 47.15625 -27.171875 C 47.15625 -29.847656 46.640625 -32.257812 45.609375 -34.40625 C 44.585938 -36.5625 43.160156 -38.253906 41.328125 -39.484375 C 39.503906 -40.722656 37.320312 -41.34375 34.78125 -41.34375 Z M 34.78125 -41.34375 "/></g></g><g style="fill:#000000;fill-opacity:1;"><g transform="translate(168.800238, 107.876728)"><path style="stroke:none" d="M 32.984375 1.265625 C 27.410156 1.265625 22.40625 0.0351562 17.96875 -2.421875 C 13.53125 -4.890625 10.023438 -8.273438 7.453125 -12.578125 C 4.878906 -16.878906 3.59375 -21.707031 3.59375 -27.0625 C 3.59375 -32.488281 4.878906 -37.332031 7.453125 -41.59375 C 10.023438 -45.863281 13.53125 -49.25 17.96875 -51.75 C 22.40625 -54.25 27.410156 -55.5 32.984375 -55.5 C 38.554688 -55.5 43.539062 -54.25 47.9375 -51.75 C 52.34375 -49.25 55.832031 -45.863281 58.40625 -41.59375 C 60.976562 -37.332031 62.265625 -32.488281 62.265625 -27.0625 C 62.265625 -21.707031 60.976562 -16.878906 58.40625 -12.578125 C 55.832031 -8.273438 52.328125 -4.890625 47.890625 -2.421875 C 43.453125 0.0351562 38.484375 1.265625 32.984375 1.265625 Z M 32.984375 -13 C 35.585938 -13 37.84375 -13.632812 39.75 -14.90625 C 41.65625 -16.175781 43.132812 -17.867188 44.1875 -19.984375 C 45.25 -22.097656 45.78125 -24.492188 45.78125 -27.171875 C 45.78125 -29.773438 45.25 -32.132812 44.1875 -34.25 C 43.132812 -36.363281 41.65625 -38.054688 39.75 -39.328125 C 37.84375 -40.597656 35.585938 -41.234375 32.984375 -41.234375 C 30.378906 -41.234375 28.109375 -40.597656 26.171875 -39.328125 C 24.234375 -38.054688 22.734375 -36.363281 21.671875 -34.25 C 20.617188 -32.132812 20.09375 -29.773438 20.09375 -27.171875 C 20.09375 -24.492188 20.617188 -22.097656 21.671875 -19.984375 C 22.734375 -17.867188 24.234375 -16.175781 26.171875 -14.90625 C 28.109375 -13.632812 30.378906 -13 32.984375 -13 Z M 32.984375 -13 "/></g></g><g style="fill:#000000;fill-opacity:1;"><g transform="translate(228.842869, 107.876728)"><path style="stroke:none" d="M 32.984375 1.265625 C 27.410156 1.265625 22.40625 0.0351562 17.96875 -2.421875 C 13.53125 -4.890625 10.023438 -8.273438 7.453125 -12.578125 C 4.878906 -16.878906 3.59375 -21.707031 3.59375 -27.0625 C 3.59375 -32.488281 4.878906 -37.332031 7.453125 -41.59375 C 10.023438 -45.863281 13.53125 -49.25 17.96875 -51.75 C 22.40625 -54.25 27.410156 -55.5 32.984375 -55.5 C 38.554688 -55.5 43.539062 -54.25 47.9375 -51.75 C 52.34375 -49.25 55.832031 -45.863281 58.40625 -41.59375 C 60.976562 -37.332031 62.265625 -32.488281 62.265625 -27.0625 C 62.265625 -21.707031 60.976562 -16.878906 58.40625 -12.578125 C 55.832031 -8.273438 52.328125 -4.890625 47.890625 -2.421875 C 43.453125 0.0351562 38.484375 1.265625 32.984375 1.265625 Z M 32.984375 -13 C 35.585938 -13 37.84375 -13.632812 39.75 -14.90625 C 41.65625 -16.175781 43.132812 -17.867188 44.1875 -19.984375 C 45.25 -22.097656 45.78125 -24.492188 45.78125 -27.171875 C 45.78125 -29.773438 45.25 -32.132812 44.1875 -34.25 C 43.132812 -36.363281 41.65625 -38.054688 39.75 -39.328125 C 37.84375 -40.597656 35.585938 -41.234375 32.984375 -41.234375 C 30.378906 -41.234375 28.109375 -40.597656 26.171875 -39.328125 C 24.234375 -38.054688 22.734375 -36.363281 21.671875 -34.25 C 20.617188 -32.132812 20.09375 -29.773438 20.09375 -27.171875 C 20.09375 -24.492188 20.617188 -22.097656 21.671875 -19.984375 C 22.734375 -17.867188 24.234375 -16.175781 26.171875 -14.90625 C 28.109375 -13.632812 30.378906 -13 32.984375 -13 Z M 32.984375 -13 "/></g></g><g style="fill:#000000;fill-opacity:1;"><g transform="translate(288.8855, 107.876728)"><path style="stroke:none" d="M 32.671875 1.265625 C 28.160156 1.265625 24.085938 0.5625 20.453125 -0.84375 C 16.828125 -2.25 13.78125 -4.273438 11.3125 -6.921875 C 8.84375 -9.566406 6.9375 -12.6875 5.59375 -16.28125 C 4.257812 -19.875 3.59375 -23.785156 3.59375 -28.015625 C 3.59375 -33.515625 4.703125 -38.304688 6.921875 -42.390625 C 9.140625 -46.484375 12.203125 -49.691406 16.109375 -52.015625 C 20.023438 -54.335938 24.519531 -55.5 29.59375 -55.5 C 31.78125 -55.5 33.84375 -55.21875 35.78125 -54.65625 C 37.71875 -54.09375 39.476562 -53.265625 41.0625 -52.171875 C 42.65625 -51.078125 43.976562 -49.789062 45.03125 -48.3125 L 45.359375 -48.3125 L 45.359375 -77.171875 L 61.734375 -77.171875 L 61.734375 -28.125 C 61.734375 -22.195312 60.535156 -17.015625 58.140625 -12.578125 C 55.742188 -8.140625 52.378906 -4.722656 48.046875 -2.328125 C 43.710938 0.0664062 38.585938 1.265625 32.671875 1.265625 Z M 32.671875 -12.890625 C 35.203125 -12.890625 37.398438 -13.503906 39.265625 -14.734375 C 41.140625 -15.972656 42.566406 -17.664062 43.546875 -19.8125 C 44.535156 -21.96875 45.03125 -24.382812 45.03125 -27.0625 C 45.03125 -29.738281 44.535156 -32.132812 43.546875 -34.25 C 42.566406 -36.363281 41.140625 -38.035156 39.265625 -39.265625 C 37.398438 -40.503906 35.203125 -41.125 32.671875 -41.125 C 30.203125 -41.125 28.015625 -40.503906 26.109375 -39.265625 C 24.210938 -38.035156 22.769531 -36.363281 21.78125 -34.25 C 20.789062 -32.132812 20.296875 -29.738281 20.296875 -27.0625 C 20.296875 -24.382812 20.789062 -21.96875 21.78125 -19.8125 C 22.769531 -17.664062 24.210938 -15.972656 26.109375 -14.734375 C 28.015625 -13.503906 30.203125 -12.890625 32.671875 -12.890625 Z M 32.671875 -12.890625 "/></g></g></g></svg>