<svg xmlns="http://www.w3.org/2000/svg" xmlns:xlink="http://www.w3.org/1999/xlink" width="500" zoomAndPan="magnify" viewBox="0 0 375 374.999991" height="500" preserveAspectRatio="xMidYMid meet" version="1.2"><defs><clipPath id="160b6d0f8b"><path d="M 97.890625 58.144531 L 188 58.144531 L 188 266 L 97.890625 266 Z M 97.890625 58.144531 "/></clipPath><clipPath id="765a83b6ad"><path d="M 187 109 L 277.140625 109 L 277.140625 316.894531 L 187 316.894531 Z M 187 109 "/></clipPath></defs><g id="8bc92150b6"><rect x="0" width="375" y="0" height="374.999991" style="fill:#ffffff;fill-opacity:1;stroke:none;"/><rect x="0" width="375" y="0" height="374.999991" style="fill:#ffffff;fill-opacity:1;stroke:none;"/><g clip-rule="nonzero" clip-path="url(#160b6d0f8b)"><path style=" stroke:none;fill-rule:evenodd;fill:#ffd51e;fill-opacity:1;" d="M 187.5 58.191406 L 187.5 109.925781 L 142.695312 135.789062 L 142.695312 187.523438 L 187.5 213.390625 L 187.5 265.125 L 97.890625 213.390625 L 97.890625 109.925781 Z M 187.5 58.191406 "/></g><g clip-rule="nonzero" clip-path="url(#765a83b6ad)"><path style=" stroke:none;fill-rule:evenodd;fill:#4d4d4d;fill-opacity:1;" d="M 187.5 161.65625 L 232.300781 187.523438 L 232.300781 239.257812 L 187.5 265.125 L 187.5 316.859375 L 277.105469 265.125 L 277.105469 161.65625 L 187.5 109.925781 Z M 187.5 161.65625 "/></g><path style=" stroke:none;fill-rule:evenodd;fill:#8c8c8c;fill-opacity:1;" d="M 215.5 74.355469 L 215.5 113.15625 L 249.105469 132.558594 L 249.105469 93.757812 Z M 215.5 74.355469 "/></g></svg>